<svg xmlns="http://www.w3.org/2000/svg" width="860" height="540" viewBox="0 0 860 540">
<rect width="100%" height="100%" fill="white"/>
<style>text{font-family:Arial,Helvetica,sans-serif;fill:#222}.label{font-size:15px}.tick{font-size:12px;fill:#444}.title{font-size:18px;font-weight:700}.legend{font-size:14px}</style>
<text class="title" x="430.0" y="28" text-anchor="middle">Graph Weight Components vs Missing Ratio</text>
<line x1="90" y1="452.00" x2="815" y2="452.00" stroke="#dddddd" stroke-width="1"/>
<text class="tick" x="78" y="456.00" text-anchor="end">0.13</text>
<line x1="90" y1="371.20" x2="815" y2="371.20" stroke="#dddddd" stroke-width="1"/>
<text class="tick" x="78" y="375.20" text-anchor="end">0.304</text>
<line x1="90" y1="290.40" x2="815" y2="290.40" stroke="#dddddd" stroke-width="1"/>
<text class="tick" x="78" y="294.40" text-anchor="end">0.478</text>
<line x1="90" y1="209.60" x2="815" y2="209.60" stroke="#dddddd" stroke-width="1"/>
<text class="tick" x="78" y="213.60" text-anchor="end">0.652</text>
<line x1="90" y1="128.80" x2="815" y2="128.80" stroke="#dddddd" stroke-width="1"/>
<text class="tick" x="78" y="132.80" text-anchor="end">0.826</text>
<line x1="90" y1="48.00" x2="815" y2="48.00" stroke="#dddddd" stroke-width="1"/>
<text class="tick" x="78" y="52.00" text-anchor="end">1</text>
<line x1="90" y1="48" x2="90" y2="452" stroke="#222" stroke-width="1.4"/>
<line x1="90" y1="452" x2="815" y2="452" stroke="#222" stroke-width="1.4"/>
<line x1="90.00" y1="452" x2="90.00" y2="458" stroke="#222"/>
<text class="tick" x="90.00" y="477" text-anchor="middle">0</text>
<line x1="331.67" y1="452" x2="331.67" y2="458" stroke="#222"/>
<text class="tick" x="331.67" y="477" text-anchor="middle">0.1</text>
<line x1="573.33" y1="452" x2="573.33" y2="458" stroke="#222"/>
<text class="tick" x="573.33" y="477" text-anchor="middle">0.2</text>
<line x1="815.00" y1="452" x2="815.00" y2="458" stroke="#222"/>
<text class="tick" x="815.00" y="477" text-anchor="middle">0.3</text>
<text class="label" x="452.5" y="510" text-anchor="middle">missing_ratio</text>
<text class="label" transform="translate(25 250.0) rotate(-90)" text-anchor="middle">weight</text>
<polyline points="90.00,159.38 331.67,121.87 573.33,149.55 815.00,95.94" fill="none" stroke="#1f77b4" stroke-width="3" stroke-linejoin="round" stroke-linecap="round"/>
<circle cx="90.00" cy="159.38" r="5" fill="#1f77b4"/>
<text class="tick" x="90.00" y="149.38" text-anchor="middle">0.76</text>
<circle cx="331.67" cy="121.87" r="5" fill="#1f77b4"/>
<text class="tick" x="331.67" y="111.87" text-anchor="middle">0.841</text>
<circle cx="573.33" cy="149.55" r="5" fill="#1f77b4"/>
<text class="tick" x="573.33" y="139.55" text-anchor="middle">0.781</text>
<circle cx="815.00" cy="95.94" r="5" fill="#1f77b4"/>
<text class="tick" x="815.00" y="85.94" text-anchor="middle">0.897</text>
<polyline points="90.00,318.66 331.67,351.24 573.33,327.95 815.00,372.42" fill="none" stroke="#2ca02c" stroke-width="3" stroke-linejoin="round" stroke-linecap="round"/>
<rect x="85.00" y="313.66" width="10" height="10" fill="#2ca02c"/>
<text class="tick" x="90.00" y="308.66" text-anchor="middle">0.417</text>
<rect x="326.67" y="346.24" width="10" height="10" fill="#2ca02c"/>
<text class="tick" x="331.67" y="341.24" text-anchor="middle">0.347</text>
<rect x="568.33" y="322.95" width="10" height="10" fill="#2ca02c"/>
<text class="tick" x="573.33" y="317.95" text-anchor="middle">0.397</text>
<rect x="810.00" y="367.42" width="10" height="10" fill="#2ca02c"/>
<text class="tick" x="815.00" y="362.42" text-anchor="middle">0.302</text>
<polyline points="90.00,397.07 331.67,399.51 573.33,401.38 815.00,402.89" fill="none" stroke="#d62728" stroke-width="3" stroke-linejoin="round" stroke-linecap="round"/>
<polygon points="90.00,391.07 84.00,402.07 96.00,402.07" fill="#d62728"/>
<text class="tick" x="90.00" y="387.07" text-anchor="middle">0.249</text>
<polygon points="331.67,393.51 325.67,404.51 337.67,404.51" fill="#d62728"/>
<text class="tick" x="331.67" y="389.51" text-anchor="middle">0.243</text>
<polygon points="573.33,395.38 567.33,406.38 579.33,406.38" fill="#d62728"/>
<text class="tick" x="573.33" y="391.38" text-anchor="middle">0.239</text>
<polygon points="815.00,396.89 809.00,407.89 821.00,407.89" fill="#d62728"/>
<text class="tick" x="815.00" y="392.89" text-anchor="middle">0.236</text>
<line x1="108" y1="70" x2="136" y2="70" stroke="#1f77b4" stroke-width="3"/>
<circle cx="122" cy="70" r="5" fill="#1f77b4"/>
<text class="legend" x="146" y="75">uncertainty</text>
<line x1="108" y1="94" x2="136" y2="94" stroke="#2ca02c" stroke-width="3"/>
<rect x="117" y="89" width="10" height="10" fill="#2ca02c"/>
<text class="legend" x="146" y="99">confidence</text>
<line x1="108" y1="118" x2="136" y2="118" stroke="#d62728" stroke-width="3"/>
<polygon points="122,112 116,123 128,123" fill="#d62728"/>
<text class="legend" x="146" y="123">adaptive</text>
</svg>