<svg xmlns="http://www.w3.org/2000/svg" width="820" height="520" viewBox="0 0 820 520">
<rect width="100%" height="100%" fill="white"/>
<style>text{font-family:Arial,Helvetica,sans-serif;fill:#222}.label{font-size:15px}.tick{font-size:12px;fill:#444}.title{font-size:18px;font-weight:700}.legend{font-size:14px}</style>
<text class="title" x="410.0" y="26" text-anchor="middle">Pantry Weight vs Missing Ratio</text>
<line x1="90" y1="435.00" x2="780" y2="435.00" stroke="#dddddd" stroke-width="1"/>
<text class="tick" x="78" y="439.00" text-anchor="end">0.142</text>
<line x1="90" y1="357.00" x2="780" y2="357.00" stroke="#dddddd" stroke-width="1"/>
<text class="tick" x="78" y="361.00" text-anchor="end">0.166</text>
<line x1="90" y1="279.00" x2="780" y2="279.00" stroke="#dddddd" stroke-width="1"/>
<text class="tick" x="78" y="283.00" text-anchor="end">0.19</text>
<line x1="90" y1="201.00" x2="780" y2="201.00" stroke="#dddddd" stroke-width="1"/>
<text class="tick" x="78" y="205.00" text-anchor="end">0.214</text>
<line x1="90" y1="123.00" x2="780" y2="123.00" stroke="#dddddd" stroke-width="1"/>
<text class="tick" x="78" y="127.00" text-anchor="end">0.239</text>
<line x1="90" y1="45.00" x2="780" y2="45.00" stroke="#dddddd" stroke-width="1"/>
<text class="tick" x="78" y="49.00" text-anchor="end">0.263</text>
<line x1="90" y1="45" x2="90" y2="435" stroke="#222" stroke-width="1.4"/>
<line x1="90" y1="435" x2="780" y2="435" stroke="#222" stroke-width="1.4"/>
<line x1="90.00" y1="435" x2="90.00" y2="441" stroke="#222"/>
<text class="tick" x="90.00" y="460" text-anchor="middle">0</text>
<line x1="320.00" y1="435" x2="320.00" y2="441" stroke="#222"/>
<text class="tick" x="320.00" y="460" text-anchor="middle">0.1</text>
<line x1="550.00" y1="435" x2="550.00" y2="441" stroke="#222"/>
<text class="tick" x="550.00" y="460" text-anchor="middle">0.2</text>
<line x1="780.00" y1="435" x2="780.00" y2="441" stroke="#222"/>
<text class="tick" x="780.00" y="460" text-anchor="middle">0.3</text>
<text class="label" x="435.0" y="492" text-anchor="middle">missing_ratio</text>
<text class="label" transform="translate(24 240.0) rotate(-90)" text-anchor="middle">weight</text>
<polyline points="90.00,285.40 320.00,245.83 550.00,253.91 780.00,251.87" fill="none" stroke="#1f77b4" stroke-width="3" stroke-linejoin="round" stroke-linecap="round"/>
<circle cx="90.00" cy="285.40" r="5" fill="#1f77b4"/>
<text class="tick" x="90.00" y="275.40" text-anchor="middle">0.188</text>
<circle cx="320.00" cy="245.83" r="5" fill="#1f77b4"/>
<text class="tick" x="320.00" y="235.83" text-anchor="middle">0.201</text>
<circle cx="550.00" cy="253.91" r="5" fill="#1f77b4"/>
<text class="tick" x="550.00" y="243.91" text-anchor="middle">0.198</text>
<circle cx="780.00" cy="251.87" r="5" fill="#1f77b4"/>
<text class="tick" x="780.00" y="241.87" text-anchor="middle">0.199</text>
<polyline points="90.00,96.62 320.00,309.22 550.00,383.38 780.00,347.36" fill="none" stroke="#d62728" stroke-width="3" stroke-linejoin="round" stroke-linecap="round"/>
<rect x="85.00" y="91.62" width="10" height="10" fill="#d62728"/>
<text class="tick" x="90.00" y="86.62" text-anchor="middle">0.247</text>
<rect x="315.00" y="304.22" width="10" height="10" fill="#d62728"/>
<text class="tick" x="320.00" y="299.22" text-anchor="middle">0.181</text>
<rect x="545.00" y="378.38" width="10" height="10" fill="#d62728"/>
<text class="tick" x="550.00" y="373.38" text-anchor="middle">0.158</text>
<rect x="775.00" y="342.36" width="10" height="10" fill="#d62728"/>
<text class="tick" x="780.00" y="337.36" text-anchor="middle">0.169</text>
<line x1="108" y1="67" x2="136" y2="67" stroke="#1f77b4" stroke-width="3"/>
<circle cx="122" cy="67" r="5" fill="#1f77b4"/>
<text class="legend" x="146" y="72">graph_adaptive_weight</text>
<line x1="108" y1="91" x2="136" y2="91" stroke="#d62728" stroke-width="3"/>
<rect x="117" y="86" width="10" height="10" fill="#d62728"/>
<text class="legend" x="146" y="96">img_logit_weight</text>
</svg>