<svg xmlns="http://www.w3.org/2000/svg" width="860" height="540" viewBox="0 0 860 540">
<rect width="100%" height="100%" fill="white"/>
<style>text{font-family:Arial,Helvetica,sans-serif;fill:#222}.label{font-size:15px}.tick{font-size:12px;fill:#444}.title{font-size:18px;font-weight:700}.legend{font-size:14px}</style>
<text class="title" x="430.0" y="28" text-anchor="middle">Pantry Graph Weight Components vs Missing Ratio</text>
<line x1="90" y1="452.00" x2="815" y2="452.00" stroke="#dddddd" stroke-width="1"/>
<text class="tick" x="78" y="456.00" text-anchor="end">0.108</text>
<line x1="90" y1="371.20" x2="815" y2="371.20" stroke="#dddddd" stroke-width="1"/>
<text class="tick" x="78" y="375.20" text-anchor="end">0.24</text>
<line x1="90" y1="290.40" x2="815" y2="290.40" stroke="#dddddd" stroke-width="1"/>
<text class="tick" x="78" y="294.40" text-anchor="end">0.373</text>
<line x1="90" y1="209.60" x2="815" y2="209.60" stroke="#dddddd" stroke-width="1"/>
<text class="tick" x="78" y="213.60" text-anchor="end">0.505</text>
<line x1="90" y1="128.80" x2="815" y2="128.80" stroke="#dddddd" stroke-width="1"/>
<text class="tick" x="78" y="132.80" text-anchor="end">0.638</text>
<line x1="90" y1="48.00" x2="815" y2="48.00" stroke="#dddddd" stroke-width="1"/>
<text class="tick" x="78" y="52.00" text-anchor="end">0.77</text>
<line x1="90" y1="48" x2="90" y2="452" stroke="#222" stroke-width="1.4"/>
<line x1="90" y1="452" x2="815" y2="452" stroke="#222" stroke-width="1.4"/>
<line x1="90.00" y1="452" x2="90.00" y2="458" stroke="#222"/>
<text class="tick" x="90.00" y="477" text-anchor="middle">0</text>
<line x1="331.67" y1="452" x2="331.67" y2="458" stroke="#222"/>
<text class="tick" x="331.67" y="477" text-anchor="middle">0.1</text>
<line x1="573.33" y1="452" x2="573.33" y2="458" stroke="#222"/>
<text class="tick" x="573.33" y="477" text-anchor="middle">0.2</text>
<line x1="815.00" y1="452" x2="815.00" y2="458" stroke="#222"/>
<text class="tick" x="815.00" y="477" text-anchor="middle">0.3</text>
<text class="label" x="452.5" y="510" text-anchor="middle">missing_ratio</text>
<text class="label" transform="translate(25 250.0) rotate(-90)" text-anchor="middle">weight</text>
<polyline points="90.00,227.40 331.67,114.27 573.33,96.97 815.00,160.91" fill="none" stroke="#1f77b4" stroke-width="3" stroke-linejoin="round" stroke-linecap="round"/>
<circle cx="90.00" cy="227.40" r="5" fill="#1f77b4"/>
<text class="tick" x="90.00" y="217.40" text-anchor="middle">0.476</text>
<circle cx="331.67" cy="114.27" r="5" fill="#1f77b4"/>
<text class="tick" x="331.67" y="104.27" text-anchor="middle">0.662</text>
<circle cx="573.33" cy="96.97" r="5" fill="#1f77b4"/>
<text class="tick" x="573.33" y="86.97" text-anchor="middle">0.69</text>
<circle cx="815.00" cy="160.91" r="5" fill="#1f77b4"/>
<text class="tick" x="815.00" y="150.91" text-anchor="middle">0.585</text>
<polyline points="90.00,162.99 331.67,249.69 573.33,264.15 815.00,217.34" fill="none" stroke="#2ca02c" stroke-width="3" stroke-linejoin="round" stroke-linecap="round"/>
<rect x="85.00" y="157.99" width="10" height="10" fill="#2ca02c"/>
<text class="tick" x="90.00" y="152.99" text-anchor="middle">0.582</text>
<rect x="326.67" y="244.69" width="10" height="10" fill="#2ca02c"/>
<text class="tick" x="331.67" y="239.69" text-anchor="middle">0.44</text>
<rect x="568.33" y="259.15" width="10" height="10" fill="#2ca02c"/>
<text class="tick" x="573.33" y="254.15" text-anchor="middle">0.416</text>
<rect x="810.00" y="212.34" width="10" height="10" fill="#2ca02c"/>
<text class="tick" x="815.00" y="207.34" text-anchor="middle">0.493</text>
<polyline points="90.00,403.03 331.67,395.55 573.33,397.08 815.00,396.69" fill="none" stroke="#d62728" stroke-width="3" stroke-linejoin="round" stroke-linecap="round"/>
<polygon points="90.00,397.03 84.00,408.03 96.00,408.03" fill="#d62728"/>
<text class="tick" x="90.00" y="393.03" text-anchor="middle">0.188</text>
<polygon points="331.67,389.55 325.67,400.55 337.67,400.55" fill="#d62728"/>
<text class="tick" x="331.67" y="385.55" text-anchor="middle">0.201</text>
<polygon points="573.33,391.08 567.33,402.08 579.33,402.08" fill="#d62728"/>
<text class="tick" x="573.33" y="387.08" text-anchor="middle">0.198</text>
<polygon points="815.00,390.69 809.00,401.69 821.00,401.69" fill="#d62728"/>
<text class="tick" x="815.00" y="386.69" text-anchor="middle">0.199</text>
<line x1="108" y1="70" x2="136" y2="70" stroke="#1f77b4" stroke-width="3"/>
<circle cx="122" cy="70" r="5" fill="#1f77b4"/>
<text class="legend" x="146" y="75">uncertainty</text>
<line x1="108" y1="94" x2="136" y2="94" stroke="#2ca02c" stroke-width="3"/>
<rect x="117" y="89" width="10" height="10" fill="#2ca02c"/>
<text class="legend" x="146" y="99">confidence</text>
<line x1="108" y1="118" x2="136" y2="118" stroke="#d62728" stroke-width="3"/>
<polygon points="122,112 116,123 128,123" fill="#d62728"/>
<text class="legend" x="146" y="123">adaptive</text>
</svg>